<?xml version="1.0"?><svg width="213.33333333333331" height="213.33333333333331" xmlns="http://www.w3.org/2000/svg">

 <g>
  <title>Layer 1</title>
  <g id="g1078">
   <path d="m31.74206,30.5457c0,-4.86479 0.939531,-6.373051 1.975241,-8.111879c4.03936,-2.118401 6.450851,-3.38064 15.319489,-4.241411c6.19223,0.11841 10.831841,0.359291 13.34425,0.99181c1.273872,0.3207 1.917805,0.70318 2.184605,0.975691c0.266785,0.27249 0.416794,0.513161 0.373184,1.36272l-0.009094,0.15321l0.009094,0.15321c0.35112,3.835289 0.522186,22.442202 0.55526,39.6402c0.032921,17.11475 -0.035774,33.002224 -0.036407,33.157139c-0.473267,3.66201 -1.285461,4.555695 -3.47715,6.926544c-2.156799,1.713799 -2.359379,2.102501 -6.899689,2.31424l-0.063721,0.008057l-0.063721,0c-5.115799,0.453033 -6.86084,0.667709 -11.46003,-0.507996c-3.113651,-2.16433 -4.502331,-4.901901 -4.341881,-6.749161c0.06226,-0.716919 0.061901,-1.817749 0.072811,-3.77372c0.010921,-1.955971 0.00621,-4.574852 0,-7.628082c-0.012421,-6.106453 -0.050472,-13.960419 -0.100121,-21.715019c-0.099319,-15.509201 -0.576599,-25.048611 -0.227558,-27.491901l-5.461502,0.040321c0,3.141357 0.1283,11.981178 0.227562,27.483837c0.049637,7.75132 0.087738,15.596275 0.100128,21.690834c0.006199,3.047279 0.010811,5.659737 0,7.595818c-0.010799,1.936073 -0.05069,3.381813 -0.054611,3.426987c-0.362549,4.174126 2.375183,8.323883 6.926991,11.280846l0.382313,0.249969l0.446018,0.120949c5.541271,1.472702 8.697231,1.257889 13.899502,0.798302c0.045967,-0.004074 0.081139,-0.003975 0.12743,-0.008072c5.294937,-0.269821 7.877296,-1.755394 10.276707,-3.644699l0.163849,-0.129021l0.136543,-0.145149c2.428001,-2.628693 4.266678,-5.116051 4.842522,-9.70845l0.009094,-0.129021l0,-0.129021c0,0 0.069534,-16.128448 0.036415,-33.342598c-0.033119,-17.21413 -0.130264,-35.186201 -0.573463,-40.027241c0.012543,-1.627861 -0.520058,-3.252991 -1.693062,-4.451061c-1.246994,-1.273649 -2.945663,-1.988689 -4.815205,-2.459359c-3.73909,-0.94136 -8.56493,-1.05142 -14.946293,-1.169221l-0.182049,-0.00806l-0.172951,0.016129c-10.075218,0.96485 -13.832199,2.922951 -18.296,5.24934l-0.69179,0.36286l-0.3641,0.637011c-0.937061,1.659771 -2.940111,4.684629 -2.940102,10.93412c-0.349039,0.975929 5.81053,0.59111 5.461491,0z" id="path830" stroke-miterlimit="4" stroke-linejoin="round" stroke-width="9.581485" fill-rule="evenodd" fill="#939292"/>
   <g id="g830" transform="matrix(-0.26092, 0, 0, -0.26092, 114.957, 142.138)">
    <path d="m180.809998,459.421997l-3.73999,-286.141998c5.069,-11.151993 13.649994,-22.481995 24.869995,-26.414001c-11.781998,10.262009 -18.701004,22.07901 -17.792007,30.257996c0,4.544006 2.115005,282.298004 2.115005,282.298004l-5.453003,0l0,0z" id="path616" stroke-width="1.0000000pt" fill-rule="evenodd" fill-opacity="0.4" fill="#ffffff"/>
    <path d="m295.986084,168.294998l1.414886,231.267715l4.753632,-0.611725l-4.05423,-230.655991l-2.114288,0z" id="path617" stroke-width="1.0000000pt" fill-rule="evenodd" fill-opacity="0.4" fill="#ffffff"/>
    <path d="m320.280304,432.458008c-1.646942,-5.764282 5.507416,11.736145 -4.123749,28.463989c9.631165,-10.138092 12.638458,-21.951202 13.546448,-31.039215l-9.422699,2.575226z" id="path618" stroke-width="1.0000000pt" fill-rule="evenodd" fill-opacity="0.4" fill="#ffffff"/>
   </g>
   <path d="m48.632801,12.091c-6.966499,0.569901 -15.7075,0.9671 -19.9736,6.4249c-3.899601,4.871099 -4.043301,8.742901 -3.526402,13.192301c1.9846,0.098799 7.055101,0.6499 7.768,-0.7187c0.210602,-2.5455 -0.0453,-6.357 2.703201,-7.695c4.621498,-2.4781 9.9744,-3.380301 15.1688,-3.391701c4.157101,0.255301 8.699299,-1.0805 12.4706,1.5762c1.619598,1.2854 0.706699,14.3965 1.035202,16.2495c0.487,22.561298 0.560196,35.246902 0.529999,57.811798c-0.105804,3.4851 -3.3041,5.970703 -6.472603,7.180702c-4.756298,0.454002 -9.667599,1.742996 -14.359497,0.322998c-3.020901,-1.823997 -3.464802,-3.774796 -3.5653,-9.048698c0.050598,-18.148804 -0.1152,-36.297401 -0.438702,-54.442902c0.431999,-2.211899 0.1101,-5.0527 -2.720798,-4.335197c-1.572903,0.164799 -3.3246,-0.341702 -4.7528,0.388397c-0.815102,2.884403 -0.126102,6.1413 -0.301701,9.179203c0.153698,17.857998 0.307198,35.723896 0.221199,53.578701c0.522999,4.8535 4.192799,8.926498 8.382,11.111496c5.979599,1.824005 12.331402,1.298004 18.420601,0.437004c4.703098,-0.870003 8.817398,-3.987 10.988602,-8.247002c1.826897,-3.110901 2.098,-6.775002 1.904701,-10.2957c-0.011803,-22.059097 0.195297,-44.124302 -0.354904,-66.178301c-0.164101,-3.183701 0.040199,-6.9849 -2.796196,-9.1735c-4.253204,-3.2445 -9.951302,-3.0499 -15.033405,-3.3554c-1.764,-0.07 -3.538998,-0.4767 -5.296997,-0.5711zm0.523499,2.2851c5.720901,0.338901 11.313599,0.4285 16.738003,2.640601c4.647995,2.528299 4.179695,5.739698 4.210098,8.699699c0.572601,23.4254 0.364998,44.498703 0.356598,67.929199c-0.563499,8.875404 -5.901901,13.943398 -12.076298,14.611404c-5.531902,0.631996 -11.984001,0.983994 -17.341801,-0.900002c-3.629902,-2.301003 -6.749199,-6.661003 -6.129398,-11.240005c0.107197,-19.459198 -0.122402,-38.918995 -0.280701,-58.377598c0.885998,0.290001 3.342598,-0.710697 3.145298,0.610703c-0.129997,10.468498 0.132702,20.938198 0.076,31.409397c0.0755,9.557701 0.0382,19.133804 0.075001,28.679703c0.745602,2.979797 3.064201,5.893799 6.048698,6.788795c4.929001,1.255005 10.040203,0.415001 14.968803,-0.100998c4.631699,-1.465996 7.922501,-6.368401 7.721695,-11.209602c0.007401,-23.185097 0.208504,-46.377098 -0.404694,-69.556297c0.333794,-2.8778 -0.134506,-3.6665 -3.316402,-5.231699c-3.9869,-2.0716 -10.236202,-1.7437 -14.918102,-1.6506c-5.2976,0.489599 -10.6693,1.635 -15.2248,4.4946c-1.671698,2.3759 -1.529198,4.494699 -1.620699,7.344099c-2.6409,0.932001 -3.812399,0.6821 -3.786299,-0.054699c0.403099,-2.434299 -0.196301,-5.982401 2.556398,-9.013c4.876699,-5.427 12.870001,-5.3172 19.2026,-5.8737l0,0z" id="path1816" stroke-miterlimit="4" stroke-linejoin="round" stroke-width="2.500001" fill-rule="evenodd" fill="#000000"/>
  </g>
 </g>
</svg>