<?xml version="1.0" encoding="UTF-8" standalone="no"?>
<!-- Created with Inkscape (http://www.inkscape.org/) -->

<svg
   xmlns:dc="http://purl.org/dc/elements/1.1/"
   xmlns:cc="http://creativecommons.org/ns#"
   xmlns:rdf="http://www.w3.org/1999/02/22-rdf-syntax-ns#"
   xmlns:svg="http://www.w3.org/2000/svg"
   xmlns="http://www.w3.org/2000/svg"
   xmlns:sodipodi="http://sodipodi.sourceforge.net/DTD/sodipodi-0.dtd"
   xmlns:inkscape="http://www.inkscape.org/namespaces/inkscape"
   width="61.083878mm"
   height="53.640167mm"
   viewBox="0 0 61.083878 53.640167"
   version="1.1"
   id="svg8"
   inkscape:version="0.92.1 r15371"
   sodipodi:docname="sig1.svg">
  <defs
     id="defs2" />
  <sodipodi:namedview
     id="base"
     pagecolor="#ffffff"
     bordercolor="#666666"
     borderopacity="1.0"
     inkscape:pageopacity="0.0"
     inkscape:pageshadow="2"
     inkscape:zoom="1.4"
     inkscape:cx="206.96408"
     inkscape:cy="2.9551546"
     inkscape:document-units="mm"
     inkscape:current-layer="layer1"
     showgrid="false"
     inkscape:window-width="1920"
     inkscape:window-height="1001"
     inkscape:window-x="-9"
     inkscape:window-y="-9"
     inkscape:window-maximized="1" />
  <metadata
     id="metadata5">
    <rdf:RDF>
      <cc:Work
         rdf:about="">
        <dc:format>image/svg+xml</dc:format>
        <dc:type
           rdf:resource="http://purl.org/dc/dcmitype/StillImage" />
        <dc:title />
      </cc:Work>
    </rdf:RDF>
  </metadata>
  <g
     inkscape:label="Layer 1"
     inkscape:groupmode="layer"
     id="layer1"
     transform="translate(-40.848596,-62.787349)">
    <path
       id="path3922"
       d="m 59.442855,72.262134 c -2.611861,3.59931 -4.321996,7.725846 -5.978025,11.822771 -1.689955,4.356677 -3.093532,8.81847 -4.814721,13.163439 -1.220997,3.082276 -1.331614,3.209386 -2.688426,6.106916 -0.793157,1.52314 -1.189757,2.40087 -2.087248,3.76663 -0.163708,0.24913 -0.282934,0.84919 -0.54574,0.70849 -1.936562,-1.03682 -0.817131,-1.87853 -0.07372,-2.85716 0.426358,-0.56126 0.87828,-1.10263 1.317419,-1.65394 1.475793,-1.71825 2.995721,-3.435533 4.814742,-4.805138 0.516043,-0.388543 1.765509,-1.269061 2.557931,-1.257525 0.53313,0.0078 1.031637,0.269963 1.547452,0.404945 0.221356,0.43107 0.516173,0.831747 0.664062,1.293209 0.151789,0.473626 0.169746,0.980797 0.223179,1.475269 0.08714,0.80638 0.09982,2.19089 0.244364,3.00373 0.06575,0.36974 0.135903,0.75052 0.310581,1.08297 0.113789,0.21656 0.351258,0.34059 0.526889,0.51089 0.24307,-0.0515 0.505166,-0.047 0.729212,-0.1544 0.283152,-0.13574 0.500857,-0.37914 0.758415,-0.55875 0.598797,-0.4176 1.234538,-0.78378 1.810279,-1.23262 1.555211,-1.21243 3.327316,-2.91742 4.667785,-4.324494 0.841377,-0.883187 1.631413,-1.813902 2.447118,-2.720851 2.861955,-3.495659 5.521761,-7.289482 6.775206,-11.690215 0.737878,-2.59062 0.63309,-3.324828 0.78857,-5.996556 -0.08604,-1.032473 -0.09744,-2.073905 -0.258136,-3.097419 -0.311859,-1.98633 -0.941152,-4.147386 -1.861709,-5.944026 -0.760044,-1.48337 -1.904894,-3.209576 -3.482149,-3.990459 -0.69949,-0.34631 -1.525064,-0.333237 -2.287598,-0.499853 -0.698736,0.221509 -1.437926,0.342093 -2.096209,0.664525 -2.871081,1.406278 -4.557906,2.891371 -6.833291,5.239641 -2.596504,2.679676 -5.419389,6.313175 -7.555777,9.343583 -1.11805,1.585921 -2.131296,3.243191 -3.196945,4.864785 -0.773805,1.397045 -1.547614,2.794088 -2.321419,4.191133 -0.08021,0.190534 -2.774805,-0.943843 -2.694594,-1.13438 v 0 c 0.720738,-1.513658 1.441474,-3.027312 2.162212,-4.54097 1.069652,-1.702924 2.057128,-3.460319 3.208957,-5.108771 2.293657,-3.282587 5.223473,-6.842455 8.150598,-9.596715 2.028724,-1.908916 5.31564,-4.598617 8.131222,-5.484206 1.316527,-0.414092 2.742444,-0.312841 4.113662,-0.469263 0.982081,0.330155 2.046751,0.476269 2.946242,0.990465 1.829519,1.045848 3.16222,2.948313 4.083531,4.769906 1.000234,1.977631 1.658604,4.36295 1.974469,6.546538 0.161729,1.118042 0.160989,2.253612 0.241483,3.380417 -0.187114,2.911472 -0.09147,3.732535 -0.864743,6.563013 -1.280988,4.688882 -3.953378,8.794562 -7.019862,12.503687 -0.862308,0.93368 -1.689624,1.900941 -2.586931,2.801035 -1.52418,1.52892 -3.379547,3.17212 -5.179534,4.39434 -1.455526,0.98832 -2.881802,1.83735 -4.717402,1.84096 -0.539533,0.001 -1.020664,-0.35019 -1.530995,-0.52529 -0.28488,-0.36101 -0.642935,-0.67478 -0.854641,-1.08303 -0.446485,-0.86097 -0.511212,-1.97989 -0.569138,-2.91402 -0.03017,-0.48665 -0.0231,-0.9749 -0.03889,-1.46223 -0.01204,-0.37133 -0.03749,-0.74223 -0.0446,-1.113689 -0.0029,-0.150665 0.0098,-0.301223 0.01466,-0.451837 0.113866,-0.06687 0.473511,-0.206563 0.341595,-0.200607 -0.679587,0.03069 -1.422236,0.705802 -1.847191,1.058256 -1.032121,0.856037 -2.119712,1.965347 -3.041224,2.920167 -0.540049,0.55957 -1.065559,1.133 -1.59834,1.69949 -0.471871,0.51305 -0.942528,1.02722 -1.415611,1.53915 -1.00575,1.08834 -1.277871,1.96138 -3.171634,1.04554 -0.243155,-0.11759 0.185748,-0.50748 0.290811,-0.75631 0.539954,-1.27877 1.15011,-2.52725 1.674659,-3.81273 1.242082,-2.899745 1.305761,-2.989012 2.502043,-6.042121 1.713487,-4.373102 3.222697,-8.822936 4.98448,-13.177467 1.821355,-4.239075 3.673496,-8.62774 6.893547,-12.021783 0.0695,-0.0961 1.428581,0.886836 1.359077,0.982935 z"
       inkscape:connector-curvature="0"
       style="stroke-width:0.26458332" />
    <path
       id="path3924"
       d="m 59.856221,77.949107 c -1.513403,3.238719 -2.996803,6.489609 -4.384384,9.784542 -0.604152,1.578867 -1.280078,3.199257 -1.321927,4.917186 -0.0046,0.190492 0.0245,0.38031 0.03674,0.570463 0.01109,0.12033 -1.690637,0.276945 -1.70171,0.156618 v 0 c -0.03754,-0.263708 -0.09732,-0.525196 -0.112619,-0.79112 -0.109641,-1.90585 0.496215,-3.751953 1.116049,-5.524252 1.3506,-3.396736 2.833211,-6.777564 4.884984,-9.818047 0.04982,-0.104854 1.532694,0.599752 1.48287,0.70461 z"
       inkscape:connector-curvature="0"
       style="stroke-width:0.26458332" />
    <path
       id="path3926"
       d="m 63.43162,79.828545 c -1.217012,2.396093 -2.336599,4.836181 -3.340587,7.328712 -0.773874,2.170597 -1.681482,4.315579 -2.145797,6.581063 -0.01125,0.147273 -0.02249,0.294545 -0.03373,0.441818 -0.0031,0.117689 -1.667509,0.073 -1.66435,-0.04469 v 0 c 9e-5,-0.207261 1.8e-4,-0.414523 2.64e-4,-0.621781 0.286372,-2.415278 1.14363,-4.70775 1.959536,-6.985297 1.043295,-2.581206 2.189382,-5.14605 3.77254,-7.448547 0.05294,-0.102682 1.505064,0.646039 1.452121,0.748718 z"
       inkscape:connector-curvature="0"
       style="stroke-width:0.26458332" />
    <path
       id="path3928"
       d="m 63.093671,91.082602 c -0.04965,0.73518 -0.178861,1.465443 -0.221502,2.200969 -0.0177,0.305382 -0.04408,0.977976 0.09104,1.303133 0.03717,0.08944 0.142896,0.130776 0.214344,0.196165 0.08545,-0.03336 0.17091,-0.06672 0.256366,-0.100073 0.0029,-0.07061 -0.04709,-0.168569 0.0088,-0.211826 0.215781,-0.167018 0.489167,-0.241943 0.73375,-0.362915 0.297339,-0.21584 0.606833,-0.415854 0.892014,-0.647515 0.889677,-0.722712 0.989465,-0.899491 1.751306,-1.745867 0.54787,-0.7396 0.676076,-0.846764 1.079135,-1.612357 0.09053,-0.171961 0.162065,-0.353346 0.237323,-0.532516 0.01278,-0.03042 -1.98e-4,-0.11488 0.0264,-0.09538 0.783376,0.573958 0.703559,0.479907 0.992199,0.904174 -0.686528,1.477433 -1.27389,3.038949 -1.530274,4.655664 -0.04373,0.27578 -0.0576,0.555477 -0.0864,0.833215 -0.108077,0.907849 0.05491,1.807035 0.132326,2.707833 0.06256,0.727962 0.06068,1.133459 0.07993,1.881224 -0.02461,2.53519 -0.332706,5.0763 -1.021342,7.5204 -0.159274,0.56528 -0.358029,1.1187 -0.537044,1.67805 -0.748442,2.00545 -1.835568,3.8966 -3.571486,5.20839 -0.95169,0.71917 -1.302983,0.78148 -2.379263,1.2165 -0.399094,0.0892 -0.792448,0.20984 -1.197284,0.26769 -1.262941,0.18048 -3.306318,0.17506 -3.814527,-1.33374 -0.116806,-0.34679 -0.05463,-0.72982 -0.08194,-1.09473 0.139472,-0.383 0.228753,-0.78822 0.418412,-1.14902 0.442804,-0.84236 1.320043,-1.8344 1.967132,-2.48995 0.991074,-1.00404 2.045579,-1.89031 3.192441,-2.71338 0.619025,-0.44426 1.272514,-0.83841 1.908771,-1.25762 0.659759,-0.35865 1.319519,-0.7173 1.979279,-1.07596 0.11893,-0.0935 1.441691,1.58841 1.322758,1.68194 v 0 c -0.621366,0.33155 -1.242732,0.66309 -1.864098,0.99463 -0.61037,0.38359 -1.232829,0.74858 -1.83111,1.15077 -1.778445,1.19553 -3.659849,2.66018 -5.008705,4.34663 -0.142029,0.17758 -0.252381,0.37832 -0.378571,0.56748 -0.04483,0.0874 -0.123804,0.16459 -0.134501,0.26225 -0.02902,0.26488 0.350842,0.31487 0.485693,0.36685 0.653608,0.25194 1.404741,0.003 2.0595,-0.0907 0.85439,-0.3018 1.161164,-0.34456 1.919084,-0.88766 1.531575,-1.09749 2.42905,-2.76278 3.073934,-4.48898 0.169998,-0.5235 0.356177,-1.04202 0.50999,-1.5705 0.672587,-2.31089 1.044258,-4.70657 1.187204,-7.10636 0.01498,-0.643798 0.04032,-1.103051 0.0046,-1.734683 -0.05633,-0.99442 -0.255154,-1.981996 -0.191847,-2.983007 0.0226,-0.330259 0.02713,-0.662245 0.06775,-0.990772 0.230995,-1.868303 0.909347,-3.685871 1.920526,-5.267881 0.855663,-0.79552 0.790877,-1.170972 2.010386,0.03976 0.129165,0.128233 0.03526,0.366832 0.0033,0.54601 -0.09137,0.512215 -0.448763,1.267444 -0.69278,1.683509 -0.212929,0.363056 -0.470234,0.698193 -0.705348,1.04729 -0.312504,0.355536 -0.60281,0.731882 -0.937511,1.066607 -0.729554,0.729607 -2.302745,2.011214 -3.345918,2.217335 -0.502978,0.09938 -1.035487,0.130419 -1.537848,0.02797 -0.321003,-0.06546 -0.559049,-0.341722 -0.838573,-0.512585 -0.147445,-0.251317 -0.339455,-0.48134 -0.442331,-0.753948 -0.425624,-1.127861 -0.0064,-2.877318 0.239371,-4.027832 0.01876,-0.112088 1.603944,0.153191 1.585185,0.265279 z"
       inkscape:connector-curvature="0"
       style="stroke-width:0.26458332" />
    <path
       id="path3930"
       d="m 71.017145,88.146635 c 2.034773,-0.165359 4.063243,-0.414803 6.088613,-0.674299 1.417865,-0.168597 0.739727,-0.09568 2.033989,-0.222647 0.117526,-0.0439 0.738336,1.61815 0.620811,1.662049 v 0 c -1.252858,0.196943 -0.590815,0.09243 -1.986084,0.313849 -2.365796,0.337294 -4.762606,0.669745 -7.156572,0.475991 -0.10995,-0.02823 0.28929,-1.583174 0.399243,-1.554943 z"
       inkscape:connector-curvature="0"
       style="stroke-width:0.26458332" />
    <path
       id="path3932"
       d="m 76.08,91.320127 c -0.237138,1.297823 -0.598369,2.583973 -0.699498,3.904157 -0.01625,0.211907 -0.0029,0.425048 -0.0044,0.637572 0.119242,0.346003 0.02178,0.372395 0.20696,0.221183 0.07782,0.08465 -1.119384,1.185262 -1.197208,1.100606 v 0 c -0.676148,-0.773073 -0.435793,-0.338714 -0.734394,-1.295609 -0.01037,-0.280921 -0.04296,-0.561898 -0.03111,-0.842761 0.05949,-1.410007 0.474993,-2.822538 0.917127,-4.152493 0.03022,-0.109069 1.572694,0.318276 1.542479,0.427345 z"
       inkscape:connector-curvature="0"
       style="stroke-width:0.26458332" />
    <path
       id="path3934"
       d="m 82.403568,92.155453 c 0.502745,0.03075 0.89784,0.07102 1.416182,0.01662 0.165291,-0.01736 0.322728,-0.07959 0.483936,-0.120017 0.795436,-0.19947 1.066964,-0.21245 1.779471,-0.608979 0.224018,-0.124674 0.419463,-0.294894 0.629193,-0.442338 0.150455,-0.182309 0.796263,-0.727043 0.458917,-1.061688 -0.200395,-0.19879 -1.164032,-0.286295 -1.363927,-0.308594 -0.306615,2.54e-4 -0.613791,-0.01775 -0.919845,7.93e-4 -0.202102,0.01222 -0.401029,0.05666 -0.60052,0.09127 -1.077555,0.186957 -2.043371,0.419465 -3.035734,0.8935 -0.215415,0.102899 -0.416343,0.233728 -0.624514,0.350592 -0.820526,0.700667 -0.205949,0.186846 -0.192799,0.152736 0.05324,-0.138089 0.06951,-0.287716 0.104264,-0.431575 0.08541,0.07786 -1.015688,1.285755 -1.101101,1.207897 v 0 c -0.202705,-0.299699 -0.514707,-0.549548 -0.608113,-0.899097 -0.154651,-0.578731 0.327864,-0.971 0.631063,-1.329994 0.249696,-0.177589 0.484791,-0.377735 0.749083,-0.532763 1.920039,-1.126251 4.19322,-1.438711 6.370842,-1.086948 0.7348,0.248124 1.240586,0.306285 1.781106,0.908789 0.665295,0.741587 0.683045,1.693912 0.205562,2.532681 -0.157588,0.276831 -0.389757,0.503955 -0.584636,0.755931 -0.280371,0.223729 -0.537543,0.480115 -0.841116,0.671184 -1.41415,0.890066 -3.228382,1.165445 -4.856633,0.833612 -0.257559,-0.05249 -0.501449,-0.157858 -0.752174,-0.236786 -0.09594,-0.06162 0.775552,-1.418426 0.871493,-1.356802 z"
       inkscape:connector-curvature="0"
       style="stroke-width:0.26458332" />
    <path
       id="path3936"
       d="m 95.927044,84.002699 c 1.40707,-1.100048 2.769407,-2.34519 3.622286,-3.941429 0.178919,-0.334865 0.3,-0.697555 0.449998,-1.046332 0.03501,-0.29841 0.124802,-0.595423 0.105032,-0.895228 -0.0489,-0.741696 -0.619758,-1.036714 -1.302706,-0.865402 -0.177368,0.04449 -0.31674,0.182854 -0.475599,0.273428 -0.401614,0.228979 -0.803873,0.456822 -1.205812,0.685232 -0.455999,0.421187 -0.953976,0.801047 -1.367999,1.26356 -2.220711,2.480796 -3.64001,5.908939 -4.282609,9.146026 -0.150717,0.759233 -0.196464,1.535578 -0.294696,2.30337 0.06335,1.261187 0.01767,3.064028 1.502357,3.602048 1.019969,0.369615 2.272448,-0.190974 3.218403,-0.478801 1.098131,-0.5154 2.27956,-1.083767 2.926254,-2.175642 0.214744,-0.362569 0.370663,-0.841539 0.161848,-1.251685 -0.07641,-0.15008 -0.239355,-0.236974 -0.359034,-0.355463 -0.203578,-0.06344 -0.400616,-0.154022 -0.610738,-0.19032 -1.653087,-0.28557 -3.409584,0.259874 -4.972923,0.739614 -0.111532,0.06559 -1.0391,-1.511716 -0.927568,-1.577303 v 0 c 1.592265,-0.609981 2.564969,-0.914929 4.336725,-0.984081 0.837993,-0.03271 1.918348,0.07114 2.693103,0.442331 0.380519,0.182311 0.68398,0.494262 1.025974,0.741394 0.18895,0.346443 0.457,0.660307 0.56687,1.039326 0.53745,1.854141 -0.957682,3.558182 -2.375677,4.49078 -0.476528,0.313407 -1.006356,0.537086 -1.509533,0.80563 -0.567481,0.181174 -1.113157,0.456314 -1.70244,0.54352 -1.274522,0.188611 -2.725833,0.176096 -3.882006,-0.511272 -1.094827,-0.650894 -1.71209,-1.670236 -2.031365,-2.877519 -0.18959,-0.716896 -0.179888,-1.472134 -0.26983,-2.208199 0.08249,-0.861356 0.09541,-1.732238 0.247462,-2.584069 0.643803,-3.606684 2.360644,-7.413067 4.951955,-10.042776 0.530206,-0.538065 1.16092,-0.966846 1.741379,-1.450269 1.538147,-0.763918 1.874306,-1.197544 3.700846,-0.994256 1.366789,0.152117 2.250889,1.352282 2.322369,2.649003 0.0245,0.444664 -0.10244,0.884766 -0.15365,1.327152 -0.17584,0.43529 -0.31296,0.888307 -0.52752,1.305872 -0.93522,1.820098 -2.496182,3.282442 -4.265421,4.274133 -0.08502,0.07465 -1.140756,-1.127721 -1.055735,-1.202373 z"
       inkscape:connector-curvature="0"
       style="stroke-width:0.26458332" />
  </g>
</svg>
