<?xml version="1.0" encoding="UTF-8" standalone="no"?>
<!-- Created with Inkscape (http://www.inkscape.org/) -->

<svg
   xmlns:dc="http://purl.org/dc/elements/1.1/"
   xmlns:cc="http://creativecommons.org/ns#"
   xmlns:rdf="http://www.w3.org/1999/02/22-rdf-syntax-ns#"
   xmlns:svg="http://www.w3.org/2000/svg"
   xmlns="http://www.w3.org/2000/svg"
   xmlns:sodipodi="http://sodipodi.sourceforge.net/DTD/sodipodi-0.dtd"
   xmlns:inkscape="http://www.inkscape.org/namespaces/inkscape"
   width="59.201271mm"
   height="54.975925mm"
   viewBox="0 0 59.201271 54.975925"
   version="1.1"
   id="svg8"
   inkscape:version="0.92.1 r15371"
   sodipodi:docname="sig2.svg">
  <defs
     id="defs2" />
  <sodipodi:namedview
     id="base"
     pagecolor="#ffffff"
     bordercolor="#666666"
     borderopacity="1.0"
     inkscape:pageopacity="0.0"
     inkscape:pageshadow="2"
     inkscape:zoom="1.4"
     inkscape:cx="311.93401"
     inkscape:cy="13.357782"
     inkscape:document-units="mm"
     inkscape:current-layer="layer1"
     showgrid="false"
     inkscape:window-width="1920"
     inkscape:window-height="1001"
     inkscape:window-x="-9"
     inkscape:window-y="-9"
     inkscape:window-maximized="1" />
  <metadata
     id="metadata5">
    <rdf:RDF>
      <cc:Work
         rdf:about="">
        <dc:format>image/svg+xml</dc:format>
        <dc:type
           rdf:resource="http://purl.org/dc/dcmitype/StillImage" />
        <dc:title />
      </cc:Work>
    </rdf:RDF>
  </metadata>
  <g
     inkscape:label="Layer 1"
     inkscape:groupmode="layer"
     id="layer1"
     transform="translate(-0.41310171,-1.0819313)">
    <path
       id="path4020"
       d="m 26.240992,11.140639 c -0.571643,3.110465 -1.437814,6.1753 -2.444493,9.171977 -0.363808,1.082979 -0.767728,2.152067 -1.151591,3.228099 -0.449509,1.193956 -0.886656,2.392637 -1.348521,3.581865 -0.62449,1.607972 -2.610741,6.511752 -3.234994,8.034472 -1.175872,2.86829 -2.351865,5.71503 -3.614348,8.54661 -0.590196,1.32372 -1.21308,2.63263 -1.819619,3.94894 -1.182267,2.26 -1.91666,3.86976 -3.352374,5.91789 -0.401037,0.5721 -0.837256,1.12506 -1.332317,1.61806 -0.576853,0.57445 -1.749391,1.39255 -2.603672,0.41411 -0.378923,-0.434 -0.119806,-1.14604 -0.179708,-1.71905 0.193148,-0.63752 0.337069,-1.29208 0.579445,-1.91255 0.652669,-1.67079 1.624566,-3.41246 2.597881,-4.90246 1.124124,-1.72087 2.441924,-3.45082 3.897931,-4.90914 0.665141,-0.6662 1.418204,-1.2384 2.127306,-1.8576 0.68485,-0.40473 1.324506,-0.89817 2.054545,-1.21419 1.33454,-0.57768 2.77242,-0.75075 4.15917,-0.13501 1.674945,0.74371 2.647376,3.40359 3.296293,4.92907 0.921388,2.21059 1.685563,5.06617 4.076258,6.17944 1.353252,0.63016 2.15805,0.41446 3.625149,0.36798 4.792594,-1.18498 9.155488,-3.68078 13.055458,-6.66282 0.92548,-0.70764 1.79569,-1.48478 2.69354,-2.22716 0.81959,-0.81263 1.68338,-1.58298 2.45877,-2.43788 2.3494,-2.5903 4.33382,-5.59494 5.59359,-8.86968 1.22553,-3.185724 1.12838,-3.940416 1.59689,-7.325736 -0.0599,-1.308737 0.0153,-2.630683 -0.17962,-3.926215 -0.84368,-5.608521 -4.10707,-10.6243201 -9.26711,-13.1731281 -1.3704,-0.67691 -2.89271,-0.988457 -4.33906,-1.482683 -1.67646,-0.124944 -3.34969,-0.443944 -5.029376,-0.374827 -3.273398,0.134697 -7.977103,1.566841 -10.845477,2.719327 -4.38984,1.763797 -8.778803,4.3176161 -12.732708,6.8755841 -2.084358,1.34847 -4.076356,2.834616 -6.114534,4.251923 -1.832062,1.394076 -3.664127,2.78815 -5.496192,4.182223 -0.171706,0.180039 -2.71780505,-2.248249 -2.54609805,-2.428285 v 0 C 2.251791,18.077945 4.082175,16.606097 5.91256,15.134246 8.004382,13.661501 10.037375,12.101431 12.188027,10.716009 16.357225,8.0302659 21.009648,5.4425909 25.6651,3.6789179 c 2.141262,-0.811197 4.333743,-1.532559 6.582386,-1.964587 2.276451,-0.43737 4.607634,-0.654172 6.925605,-0.630674 1.86304,0.01889 3.69193,0.504677 5.5379,0.757018 1.59932,0.640096 3.29143,1.084876 4.79796,1.92029 4.22509,2.342922 7.36257,6.2500061 8.96487,10.7765271 1.2851,3.630414 1.03379,4.935802 1.14055,8.692012 -0.56594,3.695107 -0.47057,4.476721 -1.83666,7.944768 -1.37409,3.48838 -3.49813,6.7006 -5.99432,9.48281 -0.81382,0.90707 -1.71975,1.72707 -2.57963,2.59061 -0.93773,0.78215 -1.84425,1.60332 -2.81319,2.34646 -2.80088,2.14816 -5.87377,4.03388 -9.144203,5.37925 -0.967878,0.39816 -1.949093,0.78256 -2.96607,1.0297 -1.079857,0.26242 -2.198198,0.32826 -3.297295,0.49239 -1.990352,-0.16783 -2.745076,-0.003 -4.502129,-1.00275 -2.568961,-1.46239 -3.631914,-4.33474 -4.588603,-6.94606 -0.364733,-0.94783 -0.777628,-2.23049 -1.383744,-3.09422 -0.20897,-0.2978 -0.491651,-0.53941 -0.770961,-0.77251 -0.152427,-0.12721 -0.315908,-0.30395 -0.514411,-0.30022 -1.317562,0.0247 -2.046825,0.73689 -3.126325,1.4135 -0.636373,0.57401 -1.308825,1.11039 -1.909117,1.72202 -1.342408,1.36778 -2.651619,3.05562 -3.753651,4.61533 -1.037331,1.46814 -1.912861,2.87133 -2.752884,4.45146 -0.259347,0.48785 -0.476221,0.99711 -0.714333,1.49567 -0.233971,0.20344 -0.967253,0.96314 -1.362194,0.60842 -0.191479,-0.17197 0.392642,-0.33979 0.543918,-0.54801 0.363439,-0.50025 0.687924,-1.02903 0.9927,-1.56703 1.17066,-2.06648 1.869853,-3.68113 2.902178,-5.87698 1.817637,-4.13844 3.593266,-8.29371 5.372211,-12.44891 1.132345,-2.64489 2.282994,-5.28199 3.400462,-7.933202 0.492551,-1.168585 0.969182,-2.343814 1.453774,-3.51572 0.417256,-1.042029 0.848162,-2.078696 1.251768,-3.126089 1.119293,-2.904651 2.090195,-5.863145 3.134145,-8.794832 0.01876,-0.112088 1.603941,0.153189 1.585185,0.26528 z"
       inkscape:connector-curvature="0"
       style="stroke-width:0.26458332" />
    <path
       id="path4022"
       d="m 19.896752,36.966072 c 0.817163,-1.91151 1.846342,-3.72119 2.798855,-5.56588 1.016119,-1.96788 0.968436,-1.9163 1.918751,-3.939744 1.760206,-3.95695 3.024065,-8.104994 4.218908,-12.259659 0.685305,-2.479289 0.366149,-1.270627 0.962014,-3.624781 0.02762,-0.140666 2.016911,0.249978 1.989289,0.390641 v 0 c -0.528762,2.430254 -0.235876,1.188524 -0.885614,3.72354 -1.195948,4.256849 -2.490163,8.500488 -4.272481,12.554661 -0.328033,0.686292 -0.643612,1.378682 -0.984099,2.058882 -1.270757,2.53863 -2.744555,4.97046 -4.26275,7.36695 -0.04982,0.10485 -1.532696,-0.59976 -1.482873,-0.70461 z"
       inkscape:connector-curvature="0"
       style="stroke-width:0.26458332" />
    <path
       id="path4050"
       d="m 23.947142,39.905542 c 2.246463,-3.79806 4.273828,-7.71437 6.202376,-11.681395 1.646499,-3.490495 3.113894,-7.077581 4.167751,-10.795011 0.223702,-0.789098 0.402931,-1.590135 0.604395,-2.385203 0.03094,-0.155001 2.222966,0.282559 2.192026,0.437558 v 0 c -0.188177,0.835572 -0.349772,1.677577 -0.564531,2.506715 -0.996598,3.847648 -2.477178,7.555108 -4.196726,11.132296 -2.030158,4.02209 -4.124222,8.06362 -6.955713,11.59333 -0.05715,0.1025 -1.506733,-0.70578 -1.449578,-0.80829 z"
       inkscape:connector-curvature="0"
       style="stroke-width:0.26458332" />
  </g>
</svg>
